<svg width="992" height="1000" viewBox="0 0 992 1000" fill="none" xmlns="http://www.w3.org/2000/svg">
    <g clip-path="url(#clip0_201_238)">
        <path d="M886.945 188.609C879.451 178.506 871.573 168.705 863.331 159.229L863.775 171.286L872.09 189.163L886.945 188.609Z" fill="#FB81B8"/>
        <path fill-rule="evenodd" clip-rule="evenodd" d="M504.708 255.393C541.186 222.997 591.633 206.618 640.388 208.869C668.233 210.154 693.209 217.294 713.774 229.126C731.536 238.656 749.367 256.14 764.05 276.595C789.931 299.189 828.831 301.972 858.017 281.145C892.139 256.795 900.062 209.393 875.713 175.27C820.526 97.9295 732.911 61.1705 647.387 57.2225C561.965 53.2792 471.506 81.3841 402.995 142.698C402.764 142.905 402.535 143.113 402.307 143.321C266.657 265.252 255.102 474.188 376.885 610.276C404.84 641.514 452.824 644.175 484.061 616.22C515.298 588.264 517.958 540.278 490.004 509.04C424 435.284 430.342 321.901 504.138 255.908C504.329 255.737 504.519 255.565 504.708 255.393Z" fill="url(#paint0_linear_201_238)"/>
        <mask id="mask0_201_238" style="mask-type:alpha" maskUnits="userSpaceOnUse" x="292" y="56" width="598" height="580">
            <path fill-rule="evenodd" clip-rule="evenodd" d="M504.731 255.373C541.207 222.99 591.644 206.618 640.389 208.868C668.234 210.153 693.21 217.293 713.775 229.125C731.537 238.655 749.368 256.139 764.051 276.594C789.932 299.188 828.832 301.971 858.018 281.144C892.14 256.794 900.063 209.392 875.714 175.269C820.527 97.9285 732.912 61.1696 647.389 57.2215C561.966 53.2782 471.507 81.3831 402.996 142.697C402.756 142.912 402.517 143.129 402.28 143.346C266.656 265.28 255.11 474.197 376.886 610.276C404.84 641.514 452.824 644.175 484.061 616.22C515.298 588.264 517.959 540.278 490.004 509.04C424.001 435.284 430.342 321.901 504.138 255.908C504.337 255.73 504.534 255.552 504.731 255.373Z" fill="url(#paint1_linear_201_238)"/>
        </mask>
        <g mask="url(#mask0_201_238)">
            <g style="mix-blend-mode:multiply">
                <path d="M407.426 80.4385L149.573 332.589L620.768 405.837L810.398 256.952V157.084L407.426 80.4385Z" fill="url(#paint2_linear_201_238)"/>
            </g>
        </g>
        <path fill-rule="evenodd" clip-rule="evenodd" d="M273.468 135.438C301.411 166.687 298.731 214.672 267.483 242.615C124.643 370.349 112.404 589.651 240.141 732.506C268.083 763.755 265.403 811.74 234.155 839.683C202.907 867.626 154.924 864.946 126.982 833.697C-56.6307 628.353 -39.0496 313.08 166.295 129.452C197.543 101.509 245.526 104.189 273.468 135.438Z" fill="url(#paint3_linear_201_238)"/>
        <path fill-rule="evenodd" clip-rule="evenodd" d="M132.968 726.521C164.216 698.578 212.199 701.258 240.141 732.507C367.87 875.353 587.165 887.591 730.014 759.85C761.262 731.907 809.245 734.587 837.187 765.836C865.129 797.085 862.449 845.07 831.201 873.013C625.865 1056.63 310.603 1039.05 126.982 833.698C99.0403 802.449 101.72 754.464 132.968 726.521Z" fill="url(#paint4_linear_201_238)"/>
        <path fill-rule="evenodd" clip-rule="evenodd" d="M817.382 216.307C853.599 195.199 900.07 207.449 921.177 243.667C1036.3 441.208 1013.4 710.095 831.275 872.996C800.031 900.943 752.048 898.269 724.102 867.023C696.156 835.778 698.829 787.793 730.074 759.845C852.579 650.268 872.967 462.432 790.023 320.106C768.916 283.888 781.165 237.415 817.382 216.307Z" fill="url(#paint5_linear_201_238)"/>
        <mask id="mask1_201_238" style="mask-type:alpha" maskUnits="userSpaceOnUse" x="704" y="205" width="288" height="688">
            <path fill-rule="evenodd" clip-rule="evenodd" d="M817.382 216.306C853.599 195.198 900.07 207.448 921.177 243.667C1036.3 441.207 1013.4 710.094 831.275 872.995C800.031 900.942 752.048 898.268 724.102 867.022C696.156 835.777 698.829 787.792 730.074 759.844C852.579 650.267 872.967 462.431 790.023 320.105C768.916 283.887 781.165 237.414 817.382 216.306Z" fill="url(#paint6_linear_201_238)"/>
        </mask>
        <g mask="url(#mask1_201_238)">
            <g style="mix-blend-mode:multiply">
                <path d="M787.171 527.842L533.284 792.631L905.437 898.538L1065 514.67L854.752 57.4146L835.979 439.402L787.171 527.842Z" fill="url(#paint7_linear_201_238)"/>
            </g>
        </g>
        <path fill-rule="evenodd" clip-rule="evenodd" d="M832.644 128.021L854.834 152.579L877.089 177.137C876.539 176.313 875.953 175.46 875.334 174.583L877.382 176.781C876.461 175.564 874.762 173.441 872.505 170.714C862.348 157.238 846.17 139.694 832.644 128.021Z" fill="#F97CBF"/>
        <path fill-rule="evenodd" clip-rule="evenodd" d="M382.919 503.08C414.166 475.137 462.149 477.816 490.092 509.065C556.082 582.864 669.461 589.206 743.214 523.199C774.451 495.244 822.435 497.905 850.39 529.143C878.344 560.381 875.683 608.367 844.447 636.323C708.149 758.303 498.777 746.518 376.934 610.258C348.992 579.009 351.671 531.024 382.919 503.08Z" fill="url(#paint8_linear_201_238)"/>
        <path fill-rule="evenodd" clip-rule="evenodd" d="M870.494 168.74C842.54 137.502 794.556 134.841 763.319 162.796C736.269 187.004 730.648 226.233 747.78 256.6C757.201 266.774 765.958 278.484 773.449 290.8C821.69 363.766 810.393 463.057 743.242 523.108C711.994 551.051 709.315 599.036 737.257 630.285C765.2 661.534 813.183 664.214 844.43 636.27C980.686 514.423 992.47 305.043 870.494 168.74Z" fill="url(#paint9_linear_201_238)"/>
        <path fill-rule="evenodd" clip-rule="evenodd" d="M741.443 250.089C634.37 124.866 409.641 115.57 267.487 242.69C236.239 270.633 188.256 267.953 160.313 236.704C132.371 205.455 135.051 157.47 166.299 129.527C367.108 -50.0447 710.265 -50.0492 875.122 174.519C899.929 208.311 892.646 255.815 858.855 280.623C829.712 302.019 790.37 299.544 764.185 276.781C757.204 267.034 749.508 257.958 741.443 250.089Z" fill="url(#paint10_linear_201_238)"/>
    </g>
    <defs>
        <linearGradient id="paint0_linear_201_238" x1="412.101" y1="502.363" x2="463.265" y2="173.461" gradientUnits="userSpaceOnUse">
            <stop stop-color="#F6D25B"/>
            <stop offset="1" stop-color="#F8B580"/>
        </linearGradient>
        <linearGradient id="paint1_linear_201_238" x1="412.102" y1="502.363" x2="463.266" y2="173.46" gradientUnits="userSpaceOnUse">
            <stop stop-color="#F6D25B"/>
            <stop offset="1" stop-color="#F8B580"/>
        </linearGradient>
        <linearGradient id="paint2_linear_201_238" x1="641.4" y1="18.414" x2="346.724" y2="358.578" gradientUnits="userSpaceOnUse">
            <stop stop-color="#895200"/>
            <stop offset="0.833333" stop-color="#E28800" stop-opacity="0"/>
        </linearGradient>
        <linearGradient id="paint3_linear_201_238" x1="146.395" y1="186.033" x2="182.872" y2="719.825" gradientUnits="userSpaceOnUse">
            <stop stop-color="#ED51F2"/>
            <stop offset="1" stop-color="#B771F2"/>
        </linearGradient>
        <linearGradient id="paint4_linear_201_238" x1="145.334" y1="750.869" x2="711.325" y2="784.954" gradientUnits="userSpaceOnUse">
            <stop stop-color="#B971F3"/>
            <stop offset="1" stop-color="#8F6FDE"/>
        </linearGradient>
        <linearGradient id="paint5_linear_201_238" x1="850.621" y1="326.396" x2="762.953" y2="845.167" gradientUnits="userSpaceOnUse">
            <stop stop-color="#6A4BB2"/>
            <stop offset="1" stop-color="#9170E0"/>
        </linearGradient>
        <linearGradient id="paint6_linear_201_238" x1="850.621" y1="279.436" x2="748.292" y2="838.569" gradientUnits="userSpaceOnUse">
            <stop stop-color="#6A4BB2"/>
            <stop offset="1" stop-color="#9170E0"/>
        </linearGradient>
        <linearGradient id="paint7_linear_201_238" x1="725.222" y1="493.971" x2="857.14" y2="772.221" gradientUnits="userSpaceOnUse">
            <stop stop-color="#542DA7"/>
            <stop offset="0.833333" stop-color="#5F2EAF" stop-opacity="0"/>
        </linearGradient>
        <linearGradient id="paint8_linear_201_238" x1="452.299" y1="506.015" x2="711.758" y2="579.099" gradientUnits="userSpaceOnUse">
            <stop stop-color="#F6D25B"/>
            <stop offset="1" stop-color="#F9A38F"/>
        </linearGradient>
        <linearGradient id="paint9_linear_201_238" x1="825.466" y1="303.379" x2="836.377" y2="579.688" gradientUnits="userSpaceOnUse">
            <stop stop-color="#FA80B7"/>
            <stop offset="1" stop-color="#F8A48D"/>
        </linearGradient>
        <linearGradient id="paint10_linear_201_238" x1="236.692" y1="166.152" x2="795.806" y2="195.386" gradientUnits="userSpaceOnUse">
            <stop stop-color="#E755F3"/>
            <stop offset="1" stop-color="#F97FB6"/>
        </linearGradient>
        <clipPath id="clip0_201_238">
            <rect width="991.962" height="1000" fill="white"/>
        </clipPath>
    </defs>
</svg>
